<svg xmlns="http://www.w3.org/2000/svg" xmlns:xlink="http://www.w3.org/1999/xlink" width="289" zoomAndPan="magnify" viewBox="0 0 216.75 197.249993" height="263" preserveAspectRatio="xMidYMid meet" version="1.0"><defs><g/><clipPath id="94c24781ae"><path d="M 40 74.882812 L 182 74.882812 L 182 195.921875 L 40 195.921875 Z M 40 74.882812 " clip-rule="nonzero"/></clipPath></defs><g clip-path="url(#94c24781ae)"><path fill="#242424" d="M 161.597656 154.679688 C 153.726562 175.9375 133.234375 191.132812 109.242188 191.132812 C 108.601562 191.132812 107.96875 191.109375 107.335938 191.085938 C 107.632812 190.34375 108.046875 189.640625 108.984375 188.820312 C 111.269531 186.828125 113.125 187.253906 113.980469 185.542969 C 114.835938 183.835938 114.550781 182.695312 115.546875 180.558594 C 115.742188 180.140625 116.039062 179.6875 116.375 179.21875 C 107.941406 182.878906 99.480469 185.699219 91.425781 187.570312 C 91.40625 187.773438 91.386719 187.976562 91.375 188.1875 C 91.027344 188.074219 90.691406 187.941406 90.347656 187.820312 C 87.453125 188.464844 84.621094 188.980469 81.859375 189.367188 C 90.089844 193.546875 99.390625 195.921875 109.242188 195.921875 C 133.679688 195.921875 154.78125 181.402344 164.359375 160.550781 Z M 85.476562 153.917969 C 84.335938 153.171875 84.371094 153.777344 84.371094 153.777344 C 83.917969 153.96875 84.765625 154.488281 85.941406 155.050781 C 87.121094 155.613281 86.546875 155.984375 87.226562 156.421875 C 87.902344 156.863281 89.011719 156.125 89.152344 155.378906 C 89.296875 154.628906 86.621094 154.664062 85.476562 153.917969 Z M 131.558594 162.140625 C 130.546875 160.992188 130.261719 159.777344 130.347656 158.609375 C 84.886719 188.601562 33.507812 186.199219 46.335938 152.191406 C 46.398438 152.027344 46.433594 151.339844 46.390625 151.164062 C 46.015625 149.664062 45.714844 148.1875 45.46875 146.769531 C 45.425781 146.507812 45.046875 146.566406 44.902344 146.851562 C 40.953125 154.765625 38.886719 163.640625 42.417969 171.207031 C 52.796875 194.03125 98.253906 186.042969 134.550781 163.746094 C 133.390625 163.5625 132.328125 163.015625 131.558594 162.140625 Z M 89.15625 157.335938 C 90.152344 157.90625 90.066406 157.160156 91.484375 157.335938 C 92.898438 157.515625 93.21875 157.550781 93.21875 157.550781 C 93.21875 157.550781 94.441406 157.21875 94.074219 156.875 C 93.433594 156.269531 93.433594 156.269531 93.433594 156.269531 C 93.433594 156.269531 92.183594 155.804688 91.1875 156.019531 C 90.1875 156.234375 88.164062 156.765625 89.15625 157.335938 Z M 118.222656 117.269531 C 120.152344 116.414062 120.363281 114.277344 123.894531 113.636719 C 127.425781 112.996094 129.140625 112.78125 129.886719 109.46875 C 130.636719 106.15625 132.242188 105.835938 132.242188 103.058594 C 132.242188 100.28125 132.671875 95.6875 134.167969 94.082031 C 135.667969 92.480469 138.769531 90.773438 135.558594 90.984375 C 132.347656 91.199219 134.0625 90.984375 130.316406 90.664062 C 126.570312 90.34375 126.25 89.808594 127.960938 89.382812 C 129.675781 88.957031 132.136719 89.167969 131.492188 87.886719 C 130.851562 86.605469 130.421875 84.679688 127.210938 85.429688 C 124.003906 86.175781 122.007812 88.3125 118.9375 88.742188 C 115.871094 89.167969 114.585938 89.488281 113.621094 91.304688 C 112.660156 93.121094 109.554688 93.015625 108.164062 94.726562 C 106.773438 96.433594 106.667969 98.890625 108.914062 98.785156 C 111.160156 98.679688 112.445312 100.175781 112.445312 102.523438 C 112.445312 104.875 114.265625 108.613281 112.765625 110.429688 C 111.269531 112.246094 110.410156 114.277344 111.804688 117.269531 C 113.195312 120.261719 114.265625 124.109375 115.546875 122.613281 C 116.832031 121.117188 116.832031 121.117188 116.832031 121.117188 C 116.832031 121.117188 116.296875 118.125 118.222656 117.269531 Z M 69.300781 174.273438 C 59.484375 164.226562 53.421875 150.511719 53.421875 135.402344 C 53.421875 129.992188 54.210938 124.769531 55.660156 119.820312 C 55.746094 120.496094 56.089844 121.207031 57.046875 122.292969 C 59.1875 124.714844 60.046875 128.132812 58.761719 131.125 C 57.476562 134.117188 56.050781 136.539062 57.046875 138.816406 C 58.046875 141.097656 56.972656 142.378906 59.363281 143.660156 C 61.757812 144.941406 62.183594 146.511719 63.328125 148.503906 C 64.46875 150.5 64.46875 150.5 64.46875 150.5 C 64.46875 150.5 67.320312 152.351562 67.320312 154.773438 C 67.320312 157.195312 69.035156 158.191406 71.601562 158.476562 C 74.171875 158.761719 74.3125 158.191406 76.3125 159.332031 C 78.308594 160.472656 80.164062 159.046875 80.164062 161.609375 C 80.164062 164.175781 80.875 166.882812 83.160156 165.742188 C 85.441406 164.601562 86.585938 164.710938 86.726562 166.011719 C 86.871094 167.308594 87.867188 167.453125 85.441406 168.875 C 83.015625 170.300781 84.300781 169.589844 83.585938 172.152344 C 83.507812 172.433594 83.433594 172.660156 83.359375 172.855469 C 89.933594 171.574219 97.132812 169.410156 104.601562 166.3125 C 102.511719 165.578125 103.160156 166.519531 101.136719 165.171875 C 98.996094 163.746094 99.710938 161.609375 96.714844 161.328125 C 93.71875 161.042969 93.71875 161.042969 93.71875 161.042969 C 93.71875 161.042969 94.003906 160.328125 91.007812 161.183594 C 88.011719 162.039062 87.867188 161.753906 85.871094 162.464844 C 83.871094 163.179688 81.449219 162.179688 82.730469 160.898438 C 84.015625 159.617188 84.015625 159.617188 84.015625 159.617188 C 84.015625 159.617188 84.871094 158.050781 82.730469 157.480469 C 80.589844 156.910156 78.738281 158.21875 80.164062 156.421875 C 81.589844 154.628906 82.304688 152.207031 80.164062 153.0625 C 78.023438 153.917969 78.59375 155.484375 76.738281 155.769531 C 74.882812 156.054688 73.171875 155.484375 73.171875 154.203125 C 73.171875 152.921875 71.746094 152.351562 73.886719 150.5 C 76.023438 148.648438 73.316406 147.792969 77.308594 148.363281 C 81.304688 148.933594 82.160156 147.078125 83.730469 149.359375 C 85.300781 151.636719 86.011719 153.347656 86.15625 152.636719 C 86.296875 151.921875 85.871094 149.5 86.296875 148.078125 C 86.726562 146.652344 87.296875 147.363281 89.4375 145.511719 C 91.578125 143.660156 89.972656 143.394531 90.5625 142.484375 C 91.148438 141.578125 90.828125 140.1875 92.328125 139.867188 C 93.824219 139.546875 95.003906 138.851562 95.699219 137.945312 C 96.394531 137.035156 96.339844 136.449219 98 136.449219 C 99.65625 136.449219 99.65625 136.449219 99.65625 136.449219 C 99.65625 136.449219 102.972656 136.128906 102.441406 135.167969 C 101.90625 134.203125 101.636719 134.417969 100.78125 134.6875 C 99.925781 134.953125 98.800781 134.527344 99.335938 133.832031 C 99.871094 133.136719 100.246094 132.601562 99.335938 132.015625 C 98.425781 131.425781 98.800781 131.265625 100.941406 131.210938 C 103.082031 131.160156 104.527344 129.398438 104.417969 130.625 C 104.3125 131.855469 102.8125 133.242188 103.882812 133.457031 C 104.953125 133.671875 107.148438 134.3125 107.683594 133.992188 C 108.21875 133.671875 108.433594 133.03125 107.414062 132.921875 C 106.398438 132.816406 105.917969 132.65625 105.703125 131.855469 C 105.488281 131.050781 107.042969 128.863281 105.808594 127.527344 C 104.578125 126.191406 103.1875 127.3125 103.027344 125.445312 C 102.867188 123.574219 103.136719 119.621094 102.332031 120.527344 C 101.53125 121.4375 99.925781 124 99.390625 122.824219 C 98.855469 121.648438 100.511719 120.582031 99.390625 119.832031 C 98.265625 119.085938 97.089844 117.109375 95.964844 117.375 C 94.84375 117.644531 94.414062 117.269531 94.359375 118.550781 C 94.308594 119.832031 93.34375 120.316406 93.398438 122.078125 C 93.449219 123.839844 94.148438 124 92.914062 125.871094 C 91.683594 127.742188 91.578125 128.113281 91.578125 128.113281 C 91.578125 128.113281 91.3125 130.359375 90.132812 129.449219 C 88.957031 128.542969 88.957031 128.542969 88.957031 128.542969 C 88.957031 128.542969 90.828125 125.976562 89.542969 125.390625 C 88.261719 124.800781 87.351562 124.535156 86.386719 123.359375 C 85.425781 122.183594 82.75 119.886719 84.78125 118.125 C 86.816406 116.359375 87.566406 116.039062 88.582031 115.078125 C 89.597656 114.117188 89.867188 114.386719 90.242188 114.972656 C 90.613281 115.558594 91.148438 115.347656 92.808594 115.71875 C 94.46875 116.09375 94.679688 115.398438 93.773438 114.0625 C 92.863281 112.726562 92.488281 113.050781 93.71875 112.085938 C 94.949219 111.125 96.820312 109.203125 96.769531 108.1875 C 96.714844 107.171875 97.890625 106.371094 98.480469 107.921875 C 99.070312 109.46875 100.726562 109.46875 100.140625 110.964844 C 99.550781 112.460938 99.765625 113.261719 98.265625 113.582031 C 96.769531 113.902344 95.429688 114.707031 96.929688 115.238281 C 98.425781 115.773438 98.746094 115.71875 99.175781 116.734375 C 99.605469 117.75 101.101562 119.246094 101.742188 118.710938 C 102.386719 118.175781 103.1875 118.390625 102.8125 116.789062 C 102.441406 115.1875 101.851562 112.566406 102.867188 113.691406 C 103.882812 114.8125 104.6875 115.453125 105.328125 114.546875 C 105.972656 113.636719 106.667969 113.796875 105.488281 112.246094 C 104.3125 110.699219 102.117188 110.753906 103.136719 109.898438 C 104.152344 109.042969 106.292969 109.148438 103.671875 107.117188 C 101.046875 105.089844 102.546875 103.753906 100.886719 102.683594 C 99.230469 101.617188 97.839844 100.921875 96.769531 101.9375 C 95.699219 102.953125 96.019531 100.386719 96.660156 98.839844 C 97.304688 97.289062 98.585938 97.554688 100.300781 96.914062 C 102.011719 96.273438 106.078125 94.617188 107.148438 92.695312 C 108.21875 90.773438 110.519531 89.808594 111.589844 89.0625 C 112.660156 88.3125 115.546875 87.460938 114.800781 85.964844 C 114.050781 84.46875 114.105469 83.507812 111.535156 84.039062 C 108.96875 84.574219 106.71875 85.214844 103.617188 85.589844 C 100.511719 85.964844 99.871094 86.335938 97.464844 87.296875 C 95.054688 88.261719 90.828125 88.152344 87.777344 89.0625 C 84.730469 89.96875 82.589844 89.808594 81.785156 91.574219 C 80.984375 93.335938 80.714844 93.816406 78.039062 95.472656 C 75.367188 97.128906 73.867188 97.609375 74.671875 99.210938 C 75.472656 100.816406 78.523438 103.808594 77.078125 104.179688 C 75.632812 104.554688 73.332031 101.402344 71.300781 101.136719 C 69.265625 100.867188 67.125 102.632812 65.839844 101.777344 C 65.640625 101.640625 65.410156 101.460938 65.167969 101.261719 C 75.386719 88.136719 91.335938 79.667969 109.242188 79.667969 C 129.609375 79.667969 147.457031 90.625 157.207031 106.9375 C 155.347656 107.3125 154.625 107.761719 155.074219 109.898438 C 155.644531 112.605469 157.074219 113.742188 158.214844 113.742188 C 158.882812 113.742188 156.875 114.769531 155.546875 115.789062 C 155.683594 115.785156 155.820312 115.777344 155.9375 115.777344 C 157.210938 115.777344 158.34375 116.0625 159.316406 116.542969 C 159.46875 116.417969 159.625 116.292969 159.785156 116.164062 C 160.851562 115.3125 161.117188 115.097656 161.1875 115.042969 C 161.472656 115.765625 161.738281 116.5 161.992188 117.234375 L 166.417969 115.339844 C 158.109375 91.804688 135.621094 74.882812 109.242188 74.882812 C 75.820312 74.882812 48.628906 102.03125 48.628906 135.402344 C 48.628906 149.902344 53.765625 163.226562 62.316406 173.660156 C 64.429688 174.035156 66.769531 174.246094 69.300781 174.273438 Z M 161.324219 142.820312 C 155.570312 146.964844 149.046875 151.351562 143.945312 154.523438 L 144.511719 165.09375 L 141.835938 167.441406 L 137.941406 158.019531 C 136.371094 158.832031 135.363281 159.210938 135.164062 158.984375 C 134.964844 158.757812 135.476562 157.808594 136.488281 156.363281 L 127.628906 151.28125 L 130.304688 148.933594 L 140.753906 150.871094 C 144.566406 146.234375 149.777344 140.34375 154.625 135.195312 L 132.0625 120.796875 L 134.71875 118.46875 L 151.613281 123.183594 C 152.839844 121.886719 153.191406 121.601562 153.464844 121.363281 C 154.644531 120.328125 156.960938 120.417969 157.453125 120.976562 C 157.90625 121.492188 157.667969 123.5625 156.773438 124.625 L 163.453125 126.488281 C 165.496094 124.609375 166.96875 123.339844 167.417969 122.945312 C 170.761719 120.019531 180.433594 116.832031 181.660156 118.226562 C 182.886719 119.621094 178.1875 129.03125 175.128906 131.714844 C 174.59375 132.179688 173.15625 133.46875 171.101562 135.195312 L 172.085938 142.039062 C 173.253906 141.289062 175.339844 141.320312 175.796875 141.835938 C 176.285156 142.394531 176.074219 144.699219 174.894531 145.734375 C 174.621094 145.976562 174.296875 146.285156 172.847656 147.335938 L 175.339844 164.667969 L 172.683594 167 L 161.324219 142.820312 " fill-opacity="1" fill-rule="nonzero"/></g><g fill="#f5fffa" fill-opacity="1"><g transform="translate(10.030182, 48.347412)"><g><path d="M 9.3125 -28.4375 L 9.3125 -4.703125 L 22.09375 -4.703125 L 22.09375 0 L 3.703125 0 L 3.703125 -28.4375 Z M 9.3125 -28.4375 "/></g></g></g><g fill="#f5fffa" fill-opacity="1"><g transform="translate(33.065336, 48.347412)"><g><path d="M 12.46875 0.40625 C 10.363281 0.40625 8.515625 -0.0195312 6.921875 -0.875 C 5.335938 -1.738281 4.109375 -3.003906 3.234375 -4.671875 C 2.359375 -6.335938 1.921875 -8.351562 1.921875 -10.71875 C 1.921875 -13.082031 2.359375 -15.097656 3.234375 -16.765625 C 4.109375 -18.441406 5.335938 -19.710938 6.921875 -20.578125 C 8.515625 -21.441406 10.363281 -21.875 12.46875 -21.875 C 14.570312 -21.875 16.414062 -21.441406 18 -20.578125 C 19.59375 -19.710938 20.828125 -18.441406 21.703125 -16.765625 C 22.585938 -15.097656 23.03125 -13.082031 23.03125 -10.71875 C 23.03125 -8.351562 22.585938 -6.335938 21.703125 -4.671875 C 20.828125 -3.003906 19.59375 -1.738281 18 -0.875 C 16.414062 -0.0195312 14.570312 0.40625 12.46875 0.40625 Z M 12.46875 -4.15625 C 15.800781 -4.15625 17.46875 -6.34375 17.46875 -10.71875 C 17.46875 -12.988281 17.039062 -14.648438 16.1875 -15.703125 C 15.332031 -16.765625 14.09375 -17.296875 12.46875 -17.296875 C 9.132812 -17.296875 7.46875 -15.101562 7.46875 -10.71875 C 7.46875 -6.34375 9.132812 -4.15625 12.46875 -4.15625 Z M 12.46875 -4.15625 "/></g></g></g><g fill="#f5fffa" fill-opacity="1"><g transform="translate(58.007115, 48.347412)"><g><path d="M 12.515625 0.40625 C 10.429688 0.40625 8.59375 -0.0195312 7 -0.875 C 5.40625 -1.738281 4.160156 -3.007812 3.265625 -4.6875 C 2.367188 -6.363281 1.921875 -8.375 1.921875 -10.71875 C 1.921875 -13.082031 2.367188 -15.097656 3.265625 -16.765625 C 4.160156 -18.441406 5.398438 -19.710938 6.984375 -20.578125 C 8.566406 -21.441406 10.375 -21.875 12.40625 -21.875 C 16.9375 -21.875 19.835938 -20.226562 21.109375 -16.9375 L 17.40625 -14.296875 L 17 -14.296875 C 16.5625 -15.304688 15.988281 -16.054688 15.28125 -16.546875 C 14.570312 -17.046875 13.613281 -17.296875 12.40625 -17.296875 C 10.851562 -17.296875 9.640625 -16.753906 8.765625 -15.671875 C 7.898438 -14.597656 7.46875 -12.945312 7.46875 -10.71875 C 7.46875 -8.507812 7.90625 -6.863281 8.78125 -5.78125 C 9.664062 -4.695312 10.910156 -4.15625 12.515625 -4.15625 C 13.679688 -4.15625 14.664062 -4.46875 15.46875 -5.09375 C 16.28125 -5.726562 16.863281 -6.640625 17.21875 -7.828125 L 17.625 -7.859375 L 21.453125 -5.765625 C 20.910156 -3.941406 19.898438 -2.457031 18.421875 -1.3125 C 16.953125 -0.164062 14.984375 0.40625 12.515625 0.40625 Z M 12.515625 0.40625 "/></g></g></g><g fill="#f5fffa" fill-opacity="1"><g transform="translate(80.127872, 48.347412)"><g><path d="M 8.359375 0.40625 C 6.984375 0.40625 5.789062 0.15625 4.78125 -0.34375 C 3.769531 -0.851562 2.992188 -1.597656 2.453125 -2.578125 C 1.910156 -3.554688 1.640625 -4.734375 1.640625 -6.109375 C 1.640625 -7.378906 1.910156 -8.445312 2.453125 -9.3125 C 2.992188 -10.175781 3.832031 -10.878906 4.96875 -11.421875 C 6.113281 -11.972656 7.609375 -12.398438 9.453125 -12.703125 C 10.734375 -12.910156 11.707031 -13.132812 12.375 -13.375 C 13.050781 -13.625 13.503906 -13.90625 13.734375 -14.21875 C 13.960938 -14.53125 14.078125 -14.925781 14.078125 -15.40625 C 14.078125 -16.09375 13.835938 -16.617188 13.359375 -16.984375 C 12.878906 -17.347656 12.082031 -17.53125 10.96875 -17.53125 C 9.78125 -17.53125 8.644531 -17.265625 7.5625 -16.734375 C 6.488281 -16.203125 5.554688 -15.5 4.765625 -14.625 L 4.375 -14.625 L 2.125 -18.03125 C 3.207031 -19.238281 4.535156 -20.179688 6.109375 -20.859375 C 7.679688 -21.535156 9.394531 -21.875 11.25 -21.875 C 14.082031 -21.875 16.132812 -21.269531 17.40625 -20.0625 C 18.675781 -18.851562 19.3125 -17.140625 19.3125 -14.921875 L 19.3125 -5.609375 C 19.3125 -4.640625 19.734375 -4.15625 20.578125 -4.15625 C 20.898438 -4.15625 21.21875 -4.21875 21.53125 -4.34375 L 21.8125 -4.265625 L 22.203125 -0.5 C 21.898438 -0.3125 21.484375 -0.15625 20.953125 -0.03125 C 20.421875 0.09375 19.835938 0.15625 19.203125 0.15625 C 17.921875 0.15625 16.914062 -0.0859375 16.1875 -0.578125 C 15.46875 -1.078125 14.957031 -1.851562 14.65625 -2.90625 L 14.234375 -2.9375 C 13.191406 -0.707031 11.234375 0.40625 8.359375 0.40625 Z M 10.078125 -3.625 C 11.328125 -3.625 12.320312 -4.039062 13.0625 -4.875 C 13.8125 -5.707031 14.1875 -6.867188 14.1875 -8.359375 L 14.1875 -10.546875 L 13.8125 -10.625 C 13.488281 -10.363281 13.0625 -10.144531 12.53125 -9.96875 C 12.007812 -9.789062 11.253906 -9.617188 10.265625 -9.453125 C 9.097656 -9.253906 8.257812 -8.921875 7.75 -8.453125 C 7.238281 -7.984375 6.984375 -7.3125 6.984375 -6.4375 C 6.984375 -5.519531 7.253906 -4.820312 7.796875 -4.34375 C 8.347656 -3.863281 9.109375 -3.625 10.078125 -3.625 Z M 10.078125 -3.625 "/></g></g></g><g fill="#f5fffa" fill-opacity="1"><g transform="translate(102.754469, 48.347412)"><g><path d="M 8.90625 0.40625 C 6.976562 0.40625 5.503906 -0.113281 4.484375 -1.15625 C 3.460938 -2.195312 2.953125 -3.785156 2.953125 -5.921875 L 2.953125 -30.078125 L 8.34375 -30.078125 L 8.34375 -6.125 C 8.34375 -4.8125 8.890625 -4.15625 9.984375 -4.15625 C 10.296875 -4.15625 10.625 -4.207031 10.96875 -4.3125 L 11.25 -4.234375 L 11.734375 -0.09375 C 11.429688 0.0625 11.035156 0.179688 10.546875 0.265625 C 10.054688 0.359375 9.507812 0.40625 8.90625 0.40625 Z M 8.90625 0.40625 "/></g></g></g><g fill="#f5fffa" fill-opacity="1"><g transform="translate(115.089171, 48.347412)"><g><path d="M 9.3125 -28.4375 L 9.3125 -4.703125 L 22.09375 -4.703125 L 22.09375 0 L 3.703125 0 L 3.703125 -28.4375 Z M 9.3125 -28.4375 "/></g></g></g><g fill="#f5fffa" fill-opacity="1"><g transform="translate(138.124325, 48.347412)"><g><path d="M 21.203125 -9.515625 L 7.40625 -9.515625 C 7.5625 -7.648438 8.09375 -6.289062 9 -5.4375 C 9.914062 -4.582031 11.15625 -4.15625 12.71875 -4.15625 C 13.957031 -4.15625 14.957031 -4.382812 15.71875 -4.84375 C 16.488281 -5.3125 17.101562 -6.015625 17.5625 -6.953125 L 17.96875 -6.953125 L 21.5625 -4.65625 C 20.851562 -3.144531 19.789062 -1.921875 18.375 -0.984375 C 16.96875 -0.0546875 15.082031 0.40625 12.71875 0.40625 C 10.5 0.40625 8.582031 -0.015625 6.96875 -0.859375 C 5.351562 -1.703125 4.109375 -2.957031 3.234375 -4.625 C 2.359375 -6.289062 1.921875 -8.320312 1.921875 -10.71875 C 1.921875 -13.15625 2.378906 -15.207031 3.296875 -16.875 C 4.222656 -18.550781 5.46875 -19.800781 7.03125 -20.625 C 8.601562 -21.457031 10.367188 -21.875 12.328125 -21.875 C 15.367188 -21.875 17.695312 -21.066406 19.3125 -19.453125 C 20.925781 -17.847656 21.734375 -15.488281 21.734375 -12.375 C 21.734375 -11.25 21.691406 -10.375 21.609375 -9.75 Z M 16.578125 -13 C 16.523438 -14.632812 16.144531 -15.820312 15.4375 -16.5625 C 14.726562 -17.3125 13.691406 -17.6875 12.328125 -17.6875 C 9.609375 -17.6875 8.007812 -16.125 7.53125 -13 Z M 16.578125 -13 "/></g></g></g><g fill="#f5fffa" fill-opacity="1"><g transform="translate(161.451315, 48.347412)"><g><path d="M 3.09375 0 L 3.09375 -21.453125 L 8.265625 -21.453125 L 8.265625 -18.3125 L 8.671875 -18.203125 C 10.015625 -20.648438 12.179688 -21.875 15.171875 -21.875 C 17.648438 -21.875 19.46875 -21.195312 20.625 -19.84375 C 21.789062 -18.5 22.375 -16.535156 22.375 -13.953125 L 22.375 0 L 16.984375 0 L 16.984375 -13.28125 C 16.984375 -14.707031 16.695312 -15.734375 16.125 -16.359375 C 15.550781 -16.992188 14.640625 -17.3125 13.390625 -17.3125 C 11.835938 -17.3125 10.628906 -16.8125 9.765625 -15.8125 C 8.910156 -14.8125 8.484375 -13.242188 8.484375 -11.109375 L 8.484375 0 Z M 3.09375 0 "/></g></g></g><g fill="#f5fffa" fill-opacity="1"><g transform="translate(186.587648, 48.347412)"><g><path d="M 10.03125 0.40625 C 8.570312 0.40625 7.234375 0.234375 6.015625 -0.109375 C 4.796875 -0.453125 3.753906 -0.925781 2.890625 -1.53125 C 2.023438 -2.132812 1.382812 -2.820312 0.96875 -3.59375 L 3.96875 -6.828125 L 4.375 -6.828125 C 5.09375 -5.867188 5.9375 -5.148438 6.90625 -4.671875 C 7.875 -4.191406 8.929688 -3.953125 10.078125 -3.953125 C 11.128906 -3.953125 11.921875 -4.140625 12.453125 -4.515625 C 12.984375 -4.890625 13.25 -5.425781 13.25 -6.125 C 13.25 -6.675781 13.054688 -7.132812 12.671875 -7.5 C 12.285156 -7.863281 11.664062 -8.148438 10.8125 -8.359375 L 7.96875 -9.046875 C 5.84375 -9.554688 4.289062 -10.332031 3.3125 -11.375 C 2.332031 -12.414062 1.84375 -13.738281 1.84375 -15.34375 C 1.84375 -16.6875 2.179688 -17.847656 2.859375 -18.828125 C 3.546875 -19.816406 4.507812 -20.570312 5.75 -21.09375 C 6.988281 -21.613281 8.429688 -21.875 10.078125 -21.875 C 12.003906 -21.875 13.601562 -21.59375 14.875 -21.03125 C 16.15625 -20.46875 17.148438 -19.722656 17.859375 -18.796875 L 14.984375 -15.6875 L 14.59375 -15.6875 C 14 -16.351562 13.328125 -16.84375 12.578125 -17.15625 C 11.828125 -17.46875 10.992188 -17.625 10.078125 -17.625 C 7.953125 -17.625 6.890625 -16.960938 6.890625 -15.640625 C 6.890625 -15.085938 7.085938 -14.632812 7.484375 -14.28125 C 7.878906 -13.925781 8.578125 -13.640625 9.578125 -13.421875 L 12.21875 -12.84375 C 14.394531 -12.375 15.984375 -11.625 16.984375 -10.59375 C 17.992188 -9.5625 18.5 -8.175781 18.5 -6.4375 C 18.5 -5.070312 18.160156 -3.867188 17.484375 -2.828125 C 16.816406 -1.796875 15.847656 -1 14.578125 -0.4375 C 13.304688 0.125 11.789062 0.40625 10.03125 0.40625 Z M 10.03125 0.40625 "/></g></g></g><g fill="#f5fffa" fill-opacity="1"><g transform="translate(40.106861, 65.133556)"><g><path d="M 2.3125 0.09375 C 1.894531 0.09375 1.53125 0.0351562 1.21875 -0.078125 C 0.90625 -0.203125 0.644531 -0.359375 0.4375 -0.546875 C 0.238281 -0.734375 0.09375 -0.9375 0 -1.15625 L 0.859375 -1.9375 L 0.96875 -1.9375 C 1.09375 -1.65625 1.285156 -1.425781 1.546875 -1.25 C 1.804688 -1.082031 2.132812 -1 2.53125 -1 C 2.875 -1 3.144531 -1.066406 3.34375 -1.203125 C 3.550781 -1.347656 3.679688 -1.535156 3.734375 -1.765625 C 3.742188 -1.847656 3.75 -1.921875 3.75 -1.984375 C 3.75 -2.148438 3.691406 -2.285156 3.578125 -2.390625 C 3.472656 -2.492188 3.289062 -2.582031 3.03125 -2.65625 L 2.40625 -2.84375 C 1.9375 -2.96875 1.570312 -3.164062 1.3125 -3.4375 C 1.050781 -3.71875 0.921875 -4.0625 0.921875 -4.46875 C 0.921875 -4.59375 0.9375 -4.734375 0.96875 -4.890625 C 1.070312 -5.367188 1.328125 -5.753906 1.734375 -6.046875 C 2.148438 -6.347656 2.75 -6.5 3.53125 -6.5 C 4.03125 -6.5 4.445312 -6.425781 4.78125 -6.28125 C 5.125 -6.144531 5.398438 -5.929688 5.609375 -5.640625 L 4.796875 -4.84375 L 4.6875 -4.84375 C 4.550781 -5.03125 4.375 -5.171875 4.15625 -5.265625 C 3.945312 -5.359375 3.691406 -5.40625 3.390625 -5.40625 C 3.046875 -5.40625 2.769531 -5.347656 2.5625 -5.234375 C 2.351562 -5.128906 2.226562 -4.976562 2.1875 -4.78125 C 2.175781 -4.71875 2.171875 -4.660156 2.171875 -4.609375 C 2.171875 -4.441406 2.226562 -4.304688 2.34375 -4.203125 C 2.457031 -4.097656 2.632812 -4.015625 2.875 -3.953125 L 3.5625 -3.765625 C 4.050781 -3.640625 4.421875 -3.445312 4.671875 -3.1875 C 4.929688 -2.9375 5.0625 -2.609375 5.0625 -2.203125 C 5.0625 -2.046875 5.039062 -1.882812 5 -1.71875 C 4.75 -0.507812 3.851562 0.09375 2.3125 0.09375 Z M 2.3125 0.09375 "/></g></g><g transform="translate(45.605484, 65.133556)"><g><path d="M 4.90625 -3.375 C 4.800781 -2.832031 4.507812 -2.441406 4.03125 -2.203125 C 3.5625 -1.972656 2.984375 -1.859375 2.296875 -1.859375 C 2.054688 -1.859375 1.832031 -1.867188 1.625 -1.890625 C 1.632812 -1.578125 1.71875 -1.335938 1.875 -1.171875 C 2.039062 -1.015625 2.265625 -0.9375 2.546875 -0.9375 C 2.816406 -0.9375 3.035156 -0.988281 3.203125 -1.09375 C 3.378906 -1.195312 3.539062 -1.359375 3.6875 -1.578125 L 3.78125 -1.578125 L 4.5625 -1.046875 C 4.414062 -0.804688 4.25 -0.601562 4.0625 -0.4375 C 3.875 -0.28125 3.640625 -0.148438 3.359375 -0.046875 C 3.078125 0.046875 2.734375 0.09375 2.328125 0.09375 C 1.960938 0.09375 1.632812 0.015625 1.34375 -0.140625 C 1.050781 -0.304688 0.820312 -0.539062 0.65625 -0.84375 C 0.488281 -1.144531 0.40625 -1.503906 0.40625 -1.921875 C 0.40625 -2.160156 0.429688 -2.414062 0.484375 -2.6875 C 0.585938 -3.144531 0.769531 -3.539062 1.03125 -3.875 C 1.300781 -4.21875 1.625 -4.476562 2 -4.65625 C 2.382812 -4.832031 2.789062 -4.921875 3.21875 -4.921875 C 3.59375 -4.921875 3.90625 -4.863281 4.15625 -4.75 C 4.414062 -4.632812 4.609375 -4.476562 4.734375 -4.28125 C 4.867188 -4.09375 4.9375 -3.878906 4.9375 -3.640625 C 4.9375 -3.546875 4.925781 -3.457031 4.90625 -3.375 Z M 3.109375 -3.984375 C 2.921875 -3.984375 2.738281 -3.941406 2.5625 -3.859375 C 2.382812 -3.773438 2.222656 -3.644531 2.078125 -3.46875 C 1.941406 -3.300781 1.832031 -3.085938 1.75 -2.828125 C 1.976562 -2.816406 2.191406 -2.8125 2.390625 -2.8125 C 2.785156 -2.8125 3.101562 -2.859375 3.34375 -2.953125 C 3.582031 -3.054688 3.726562 -3.234375 3.78125 -3.484375 C 3.78125 -3.515625 3.78125 -3.539062 3.78125 -3.5625 C 3.78125 -3.6875 3.722656 -3.785156 3.609375 -3.859375 C 3.492188 -3.941406 3.328125 -3.984375 3.109375 -3.984375 Z M 3.109375 -3.984375 "/></g></g><g transform="translate(50.854568, 65.133556)"><g><path d="M 4.90625 -3.375 C 4.800781 -2.832031 4.507812 -2.441406 4.03125 -2.203125 C 3.5625 -1.972656 2.984375 -1.859375 2.296875 -1.859375 C 2.054688 -1.859375 1.832031 -1.867188 1.625 -1.890625 C 1.632812 -1.578125 1.71875 -1.335938 1.875 -1.171875 C 2.039062 -1.015625 2.265625 -0.9375 2.546875 -0.9375 C 2.816406 -0.9375 3.035156 -0.988281 3.203125 -1.09375 C 3.378906 -1.195312 3.539062 -1.359375 3.6875 -1.578125 L 3.78125 -1.578125 L 4.5625 -1.046875 C 4.414062 -0.804688 4.25 -0.601562 4.0625 -0.4375 C 3.875 -0.28125 3.640625 -0.148438 3.359375 -0.046875 C 3.078125 0.046875 2.734375 0.09375 2.328125 0.09375 C 1.960938 0.09375 1.632812 0.015625 1.34375 -0.140625 C 1.050781 -0.304688 0.820312 -0.539062 0.65625 -0.84375 C 0.488281 -1.144531 0.40625 -1.503906 0.40625 -1.921875 C 0.40625 -2.160156 0.429688 -2.414062 0.484375 -2.6875 C 0.585938 -3.144531 0.769531 -3.539062 1.03125 -3.875 C 1.300781 -4.21875 1.625 -4.476562 2 -4.65625 C 2.382812 -4.832031 2.789062 -4.921875 3.21875 -4.921875 C 3.59375 -4.921875 3.90625 -4.863281 4.15625 -4.75 C 4.414062 -4.632812 4.609375 -4.476562 4.734375 -4.28125 C 4.867188 -4.09375 4.9375 -3.878906 4.9375 -3.640625 C 4.9375 -3.546875 4.925781 -3.457031 4.90625 -3.375 Z M 3.109375 -3.984375 C 2.921875 -3.984375 2.738281 -3.941406 2.5625 -3.859375 C 2.382812 -3.773438 2.222656 -3.644531 2.078125 -3.46875 C 1.941406 -3.300781 1.832031 -3.085938 1.75 -2.828125 C 1.976562 -2.816406 2.191406 -2.8125 2.390625 -2.8125 C 2.785156 -2.8125 3.101562 -2.859375 3.34375 -2.953125 C 3.582031 -3.054688 3.726562 -3.234375 3.78125 -3.484375 C 3.78125 -3.515625 3.78125 -3.539062 3.78125 -3.5625 C 3.78125 -3.6875 3.722656 -3.785156 3.609375 -3.859375 C 3.492188 -3.941406 3.328125 -3.984375 3.109375 -3.984375 Z M 3.109375 -3.984375 "/></g></g><g transform="translate(56.103652, 65.133556)"><g/></g><g transform="translate(58.218171, 65.133556)"><g><path d="M 2.40625 -3.875 L 1.9375 -1.671875 C 1.914062 -1.585938 1.90625 -1.507812 1.90625 -1.4375 C 1.90625 -1.289062 1.945312 -1.175781 2.03125 -1.09375 C 2.113281 -1.019531 2.226562 -0.984375 2.375 -0.984375 C 2.476562 -0.984375 2.570312 -0.992188 2.65625 -1.015625 C 2.75 -1.046875 2.84375 -1.09375 2.9375 -1.15625 L 3.03125 -1.15625 L 3.203125 -0.25 C 3.046875 -0.132812 2.878906 -0.0507812 2.703125 0 C 2.523438 0.0625 2.296875 0.09375 2.015625 0.09375 C 1.753906 0.09375 1.519531 0.046875 1.3125 -0.046875 C 1.113281 -0.140625 0.957031 -0.28125 0.84375 -0.46875 C 0.726562 -0.664062 0.671875 -0.90625 0.671875 -1.1875 C 0.671875 -1.351562 0.691406 -1.523438 0.734375 -1.703125 L 1.1875 -3.875 L 0.453125 -3.875 L 0.65625 -4.828125 L 1.390625 -4.828125 L 1.59375 -5.78125 L 2.84375 -5.96875 L 2.609375 -4.828125 L 3.984375 -4.828125 L 3.78125 -3.875 Z M 2.40625 -3.875 "/></g></g><g transform="translate(61.970018, 65.133556)"><g><path d="M 0.1875 0 L 1.625 -6.765625 L 2.828125 -6.765625 L 2.296875 -4.203125 L 2.375 -4.1875 C 2.757812 -4.675781 3.273438 -4.921875 3.921875 -4.921875 C 4.335938 -4.921875 4.660156 -4.800781 4.890625 -4.5625 C 5.117188 -4.320312 5.234375 -4 5.234375 -3.59375 C 5.234375 -3.414062 5.210938 -3.222656 5.171875 -3.015625 L 4.53125 0 L 3.3125 0 L 3.9375 -2.953125 C 3.957031 -3.066406 3.96875 -3.171875 3.96875 -3.265625 C 3.96875 -3.472656 3.910156 -3.628906 3.796875 -3.734375 C 3.679688 -3.835938 3.507812 -3.890625 3.28125 -3.890625 C 2.945312 -3.890625 2.660156 -3.78125 2.421875 -3.5625 C 2.191406 -3.34375 2.023438 -2.988281 1.921875 -2.5 L 1.390625 0 Z M 0.1875 0 "/></g></g><g transform="translate(67.630624, 65.133556)"><g><path d="M 0.1875 0 L 1.203125 -4.828125 L 2.390625 -4.828125 L 2.234375 -4.109375 L 2.328125 -4.09375 C 2.492188 -4.363281 2.679688 -4.5625 2.890625 -4.6875 C 3.097656 -4.8125 3.347656 -4.875 3.640625 -4.875 C 3.773438 -4.875 3.890625 -4.859375 3.984375 -4.828125 C 4.085938 -4.804688 4.171875 -4.773438 4.234375 -4.734375 L 3.84375 -3.671875 L 3.75 -3.65625 C 3.59375 -3.726562 3.421875 -3.765625 3.234375 -3.765625 C 2.535156 -3.765625 2.082031 -3.265625 1.875 -2.265625 L 1.390625 0 Z M 0.1875 0 "/></g></g><g transform="translate(71.417494, 65.133556)"><g><path d="M 2.40625 0.09375 C 2 0.09375 1.640625 0.0195312 1.328125 -0.125 C 1.023438 -0.28125 0.789062 -0.5 0.625 -0.78125 C 0.46875 -1.070312 0.390625 -1.425781 0.390625 -1.84375 C 0.390625 -2.082031 0.414062 -2.332031 0.46875 -2.59375 C 0.570312 -3.070312 0.742188 -3.484375 0.984375 -3.828125 C 1.234375 -4.179688 1.546875 -4.453125 1.921875 -4.640625 C 2.296875 -4.828125 2.722656 -4.921875 3.203125 -4.921875 C 3.617188 -4.921875 3.976562 -4.84375 4.28125 -4.6875 C 4.582031 -4.53125 4.816406 -4.304688 4.984375 -4.015625 C 5.148438 -3.722656 5.234375 -3.375 5.234375 -2.96875 C 5.234375 -2.738281 5.207031 -2.5 5.15625 -2.25 C 5.050781 -1.757812 4.875 -1.335938 4.625 -0.984375 C 4.375 -0.640625 4.0625 -0.375 3.6875 -0.1875 C 3.3125 0 2.882812 0.09375 2.40625 0.09375 Z M 2.515625 -0.9375 C 2.867188 -0.9375 3.164062 -1.054688 3.40625 -1.296875 C 3.65625 -1.546875 3.832031 -1.914062 3.9375 -2.40625 C 3.976562 -2.613281 4 -2.796875 4 -2.953125 C 4 -3.273438 3.921875 -3.507812 3.765625 -3.65625 C 3.609375 -3.8125 3.382812 -3.890625 3.09375 -3.890625 C 2.738281 -3.890625 2.441406 -3.765625 2.203125 -3.515625 C 1.960938 -3.273438 1.789062 -2.90625 1.6875 -2.40625 C 1.632812 -2.207031 1.609375 -2.03125 1.609375 -1.875 C 1.609375 -1.550781 1.6875 -1.3125 1.84375 -1.15625 C 2.007812 -1.007812 2.234375 -0.9375 2.515625 -0.9375 Z M 2.515625 -0.9375 "/></g></g><g transform="translate(77.029943, 65.133556)"><g><path d="M 1.71875 0.09375 C 1.445312 0.09375 1.210938 0.0351562 1.015625 -0.078125 C 0.828125 -0.191406 0.679688 -0.351562 0.578125 -0.5625 C 0.484375 -0.769531 0.4375 -1.007812 0.4375 -1.28125 C 0.4375 -1.445312 0.457031 -1.628906 0.5 -1.828125 L 1.140625 -4.828125 L 2.34375 -4.828125 L 1.703125 -1.78125 C 1.679688 -1.695312 1.671875 -1.613281 1.671875 -1.53125 C 1.671875 -1.34375 1.726562 -1.195312 1.84375 -1.09375 C 1.957031 -0.988281 2.117188 -0.9375 2.328125 -0.9375 C 3.015625 -0.9375 3.457031 -1.390625 3.65625 -2.296875 L 4.1875 -4.828125 L 5.40625 -4.828125 L 4.375 0 L 3.21875 0 L 3.359375 -0.703125 L 3.28125 -0.734375 C 3.082031 -0.453125 2.863281 -0.242188 2.625 -0.109375 C 2.382812 0.0234375 2.082031 0.09375 1.71875 0.09375 Z M 1.71875 0.09375 "/></g></g><g transform="translate(82.616124, 65.133556)"><g><path d="M 1.640625 2.046875 C 1.210938 2.046875 0.835938 2 0.515625 1.90625 C 0.203125 1.8125 -0.0390625 1.671875 -0.21875 1.484375 C -0.40625 1.304688 -0.5 1.09375 -0.5 0.84375 C -0.5 0.757812 -0.488281 0.675781 -0.46875 0.59375 C -0.425781 0.382812 -0.304688 0.203125 -0.109375 0.046875 C 0.078125 -0.0976562 0.328125 -0.191406 0.640625 -0.234375 L 0.671875 -0.3125 C 0.566406 -0.394531 0.488281 -0.484375 0.4375 -0.578125 C 0.382812 -0.679688 0.359375 -0.796875 0.359375 -0.921875 C 0.359375 -0.992188 0.367188 -1.066406 0.390625 -1.140625 C 0.460938 -1.503906 0.765625 -1.742188 1.296875 -1.859375 L 1.3125 -1.953125 C 1.144531 -2.066406 1.015625 -2.203125 0.921875 -2.359375 C 0.828125 -2.523438 0.78125 -2.726562 0.78125 -2.96875 C 0.78125 -3.101562 0.800781 -3.257812 0.84375 -3.4375 C 0.894531 -3.707031 1.015625 -3.957031 1.203125 -4.1875 C 1.398438 -4.414062 1.648438 -4.59375 1.953125 -4.71875 C 2.253906 -4.851562 2.59375 -4.921875 2.96875 -4.921875 C 3.363281 -4.921875 3.6875 -4.835938 3.9375 -4.671875 C 4.144531 -4.890625 4.296875 -5.15625 4.390625 -5.46875 L 4.5 -5.515625 L 5.3125 -5.296875 C 5.238281 -5.035156 5.128906 -4.820312 4.984375 -4.65625 C 4.835938 -4.5 4.644531 -4.382812 4.40625 -4.3125 L 4.375 -4.203125 C 4.53125 -4.035156 4.609375 -3.820312 4.609375 -3.5625 C 4.609375 -3.414062 4.585938 -3.253906 4.546875 -3.078125 C 4.492188 -2.804688 4.378906 -2.5625 4.203125 -2.34375 C 4.023438 -2.132812 3.78125 -1.960938 3.46875 -1.828125 C 3.164062 -1.703125 2.796875 -1.640625 2.359375 -1.640625 L 2.171875 -1.640625 C 2.054688 -1.648438 1.972656 -1.65625 1.921875 -1.65625 C 1.816406 -1.65625 1.722656 -1.625 1.640625 -1.5625 C 1.566406 -1.5 1.519531 -1.421875 1.5 -1.328125 C 1.5 -1.296875 1.5 -1.273438 1.5 -1.265625 C 1.5 -1.179688 1.53125 -1.113281 1.59375 -1.0625 C 1.664062 -1.019531 1.769531 -0.992188 1.90625 -0.984375 L 2.859375 -0.953125 C 3.828125 -0.910156 4.3125 -0.539062 4.3125 0.15625 C 4.3125 0.28125 4.296875 0.410156 4.265625 0.546875 C 4.210938 0.828125 4.085938 1.078125 3.890625 1.296875 C 3.691406 1.523438 3.40625 1.707031 3.03125 1.84375 C 2.664062 1.976562 2.203125 2.046875 1.640625 2.046875 Z M 2.53125 -2.484375 C 2.769531 -2.484375 2.96875 -2.550781 3.125 -2.6875 C 3.289062 -2.832031 3.398438 -3.035156 3.453125 -3.296875 C 3.472656 -3.367188 3.484375 -3.441406 3.484375 -3.515625 C 3.484375 -3.691406 3.425781 -3.828125 3.3125 -3.921875 C 3.207031 -4.015625 3.0625 -4.0625 2.875 -4.0625 C 2.632812 -4.0625 2.4375 -3.992188 2.28125 -3.859375 C 2.125 -3.722656 2.015625 -3.523438 1.953125 -3.265625 C 1.941406 -3.179688 1.9375 -3.109375 1.9375 -3.046875 C 1.9375 -2.867188 1.988281 -2.726562 2.09375 -2.625 C 2.195312 -2.53125 2.34375 -2.484375 2.53125 -2.484375 Z M 1.75 1.171875 C 2.007812 1.171875 2.234375 1.140625 2.421875 1.078125 C 2.609375 1.023438 2.753906 0.953125 2.859375 0.859375 C 2.960938 0.773438 3.03125 0.675781 3.0625 0.5625 C 3.070312 0.519531 3.078125 0.472656 3.078125 0.421875 C 3.078125 0.304688 3.03125 0.222656 2.9375 0.171875 C 2.84375 0.117188 2.6875 0.0859375 2.46875 0.078125 L 1.609375 0.03125 C 1.523438 0.0195312 1.46875 0.015625 1.4375 0.015625 C 1.21875 0.015625 1.039062 0.0664062 0.90625 0.171875 C 0.769531 0.285156 0.703125 0.429688 0.703125 0.609375 C 0.703125 0.785156 0.789062 0.921875 0.96875 1.015625 C 1.15625 1.117188 1.414062 1.171875 1.75 1.171875 Z M 1.75 1.171875 "/></g></g><g transform="translate(87.637558, 65.133556)"><g><path d="M 0.1875 0 L 1.625 -6.765625 L 2.828125 -6.765625 L 2.296875 -4.203125 L 2.375 -4.1875 C 2.757812 -4.675781 3.273438 -4.921875 3.921875 -4.921875 C 4.335938 -4.921875 4.660156 -4.800781 4.890625 -4.5625 C 5.117188 -4.320312 5.234375 -4 5.234375 -3.59375 C 5.234375 -3.414062 5.210938 -3.222656 5.171875 -3.015625 L 4.53125 0 L 3.3125 0 L 3.9375 -2.953125 C 3.957031 -3.066406 3.96875 -3.171875 3.96875 -3.265625 C 3.96875 -3.472656 3.910156 -3.628906 3.796875 -3.734375 C 3.679688 -3.835938 3.507812 -3.890625 3.28125 -3.890625 C 2.945312 -3.890625 2.660156 -3.78125 2.421875 -3.5625 C 2.191406 -3.34375 2.023438 -2.988281 1.921875 -2.5 L 1.390625 0 Z M 0.1875 0 "/></g></g><g transform="translate(93.298163, 65.133556)"><g/></g><g transform="translate(95.412682, 65.133556)"><g><path d="M 2.40625 -3.875 L 1.9375 -1.671875 C 1.914062 -1.585938 1.90625 -1.507812 1.90625 -1.4375 C 1.90625 -1.289062 1.945312 -1.175781 2.03125 -1.09375 C 2.113281 -1.019531 2.226562 -0.984375 2.375 -0.984375 C 2.476562 -0.984375 2.570312 -0.992188 2.65625 -1.015625 C 2.75 -1.046875 2.84375 -1.09375 2.9375 -1.15625 L 3.03125 -1.15625 L 3.203125 -0.25 C 3.046875 -0.132812 2.878906 -0.0507812 2.703125 0 C 2.523438 0.0625 2.296875 0.09375 2.015625 0.09375 C 1.753906 0.09375 1.519531 0.046875 1.3125 -0.046875 C 1.113281 -0.140625 0.957031 -0.28125 0.84375 -0.46875 C 0.726562 -0.664062 0.671875 -0.90625 0.671875 -1.1875 C 0.671875 -1.351562 0.691406 -1.523438 0.734375 -1.703125 L 1.1875 -3.875 L 0.453125 -3.875 L 0.65625 -4.828125 L 1.390625 -4.828125 L 1.59375 -5.78125 L 2.84375 -5.96875 L 2.609375 -4.828125 L 3.984375 -4.828125 L 3.78125 -3.875 Z M 2.40625 -3.875 "/></g></g><g transform="translate(99.164529, 65.133556)"><g><path d="M 0.1875 0 L 1.625 -6.765625 L 2.828125 -6.765625 L 2.296875 -4.203125 L 2.375 -4.1875 C 2.757812 -4.675781 3.273438 -4.921875 3.921875 -4.921875 C 4.335938 -4.921875 4.660156 -4.800781 4.890625 -4.5625 C 5.117188 -4.320312 5.234375 -4 5.234375 -3.59375 C 5.234375 -3.414062 5.210938 -3.222656 5.171875 -3.015625 L 4.53125 0 L 3.3125 0 L 3.9375 -2.953125 C 3.957031 -3.066406 3.96875 -3.171875 3.96875 -3.265625 C 3.96875 -3.472656 3.910156 -3.628906 3.796875 -3.734375 C 3.679688 -3.835938 3.507812 -3.890625 3.28125 -3.890625 C 2.945312 -3.890625 2.660156 -3.78125 2.421875 -3.5625 C 2.191406 -3.34375 2.023438 -2.988281 1.921875 -2.5 L 1.390625 0 Z M 0.1875 0 "/></g></g><g transform="translate(104.825134, 65.133556)"><g><path d="M 4.90625 -3.375 C 4.800781 -2.832031 4.507812 -2.441406 4.03125 -2.203125 C 3.5625 -1.972656 2.984375 -1.859375 2.296875 -1.859375 C 2.054688 -1.859375 1.832031 -1.867188 1.625 -1.890625 C 1.632812 -1.578125 1.71875 -1.335938 1.875 -1.171875 C 2.039062 -1.015625 2.265625 -0.9375 2.546875 -0.9375 C 2.816406 -0.9375 3.035156 -0.988281 3.203125 -1.09375 C 3.378906 -1.195312 3.539062 -1.359375 3.6875 -1.578125 L 3.78125 -1.578125 L 4.5625 -1.046875 C 4.414062 -0.804688 4.25 -0.601562 4.0625 -0.4375 C 3.875 -0.28125 3.640625 -0.148438 3.359375 -0.046875 C 3.078125 0.046875 2.734375 0.09375 2.328125 0.09375 C 1.960938 0.09375 1.632812 0.015625 1.34375 -0.140625 C 1.050781 -0.304688 0.820312 -0.539062 0.65625 -0.84375 C 0.488281 -1.144531 0.40625 -1.503906 0.40625 -1.921875 C 0.40625 -2.160156 0.429688 -2.414062 0.484375 -2.6875 C 0.585938 -3.144531 0.769531 -3.539062 1.03125 -3.875 C 1.300781 -4.21875 1.625 -4.476562 2 -4.65625 C 2.382812 -4.832031 2.789062 -4.921875 3.21875 -4.921875 C 3.59375 -4.921875 3.90625 -4.863281 4.15625 -4.75 C 4.414062 -4.632812 4.609375 -4.476562 4.734375 -4.28125 C 4.867188 -4.09375 4.9375 -3.878906 4.9375 -3.640625 C 4.9375 -3.546875 4.925781 -3.457031 4.90625 -3.375 Z M 3.109375 -3.984375 C 2.921875 -3.984375 2.738281 -3.941406 2.5625 -3.859375 C 2.382812 -3.773438 2.222656 -3.644531 2.078125 -3.46875 C 1.941406 -3.300781 1.832031 -3.085938 1.75 -2.828125 C 1.976562 -2.816406 2.191406 -2.8125 2.390625 -2.8125 C 2.785156 -2.8125 3.101562 -2.859375 3.34375 -2.953125 C 3.582031 -3.054688 3.726562 -3.234375 3.78125 -3.484375 C 3.78125 -3.515625 3.78125 -3.539062 3.78125 -3.5625 C 3.78125 -3.6875 3.722656 -3.785156 3.609375 -3.859375 C 3.492188 -3.941406 3.328125 -3.984375 3.109375 -3.984375 Z M 3.109375 -3.984375 "/></g></g><g transform="translate(110.074218, 65.133556)"><g/></g><g transform="translate(112.188737, 65.133556)"><g><path d="M 1.46875 0.09375 C 1.269531 0.09375 1.085938 0.0507812 0.921875 -0.03125 C 0.765625 -0.125 0.640625 -0.257812 0.546875 -0.4375 C 0.460938 -0.613281 0.421875 -0.820312 0.421875 -1.0625 C 0.421875 -1.21875 0.441406 -1.378906 0.484375 -1.546875 L 1.59375 -6.765625 L 2.796875 -6.765625 L 1.65625 -1.375 C 1.644531 -1.3125 1.640625 -1.269531 1.640625 -1.25 C 1.640625 -1.144531 1.664062 -1.066406 1.71875 -1.015625 C 1.769531 -0.960938 1.835938 -0.9375 1.921875 -0.9375 C 1.984375 -0.9375 2.050781 -0.945312 2.125 -0.96875 L 2.1875 -0.953125 L 2.1875 -0.015625 C 2.007812 0.0546875 1.769531 0.09375 1.46875 0.09375 Z M 1.46875 0.09375 "/></g></g><g transform="translate(114.964316, 65.133556)"><g><path d="M 4.90625 -3.375 C 4.800781 -2.832031 4.507812 -2.441406 4.03125 -2.203125 C 3.5625 -1.972656 2.984375 -1.859375 2.296875 -1.859375 C 2.054688 -1.859375 1.832031 -1.867188 1.625 -1.890625 C 1.632812 -1.578125 1.71875 -1.335938 1.875 -1.171875 C 2.039062 -1.015625 2.265625 -0.9375 2.546875 -0.9375 C 2.816406 -0.9375 3.035156 -0.988281 3.203125 -1.09375 C 3.378906 -1.195312 3.539062 -1.359375 3.6875 -1.578125 L 3.78125 -1.578125 L 4.5625 -1.046875 C 4.414062 -0.804688 4.25 -0.601562 4.0625 -0.4375 C 3.875 -0.28125 3.640625 -0.148438 3.359375 -0.046875 C 3.078125 0.046875 2.734375 0.09375 2.328125 0.09375 C 1.960938 0.09375 1.632812 0.015625 1.34375 -0.140625 C 1.050781 -0.304688 0.820312 -0.539062 0.65625 -0.84375 C 0.488281 -1.144531 0.40625 -1.503906 0.40625 -1.921875 C 0.40625 -2.160156 0.429688 -2.414062 0.484375 -2.6875 C 0.585938 -3.144531 0.769531 -3.539062 1.03125 -3.875 C 1.300781 -4.21875 1.625 -4.476562 2 -4.65625 C 2.382812 -4.832031 2.789062 -4.921875 3.21875 -4.921875 C 3.59375 -4.921875 3.90625 -4.863281 4.15625 -4.75 C 4.414062 -4.632812 4.609375 -4.476562 4.734375 -4.28125 C 4.867188 -4.09375 4.9375 -3.878906 4.9375 -3.640625 C 4.9375 -3.546875 4.925781 -3.457031 4.90625 -3.375 Z M 3.109375 -3.984375 C 2.921875 -3.984375 2.738281 -3.941406 2.5625 -3.859375 C 2.382812 -3.773438 2.222656 -3.644531 2.078125 -3.46875 C 1.941406 -3.300781 1.832031 -3.085938 1.75 -2.828125 C 1.976562 -2.816406 2.191406 -2.8125 2.390625 -2.8125 C 2.785156 -2.8125 3.101562 -2.859375 3.34375 -2.953125 C 3.582031 -3.054688 3.726562 -3.234375 3.78125 -3.484375 C 3.78125 -3.515625 3.78125 -3.539062 3.78125 -3.5625 C 3.78125 -3.6875 3.722656 -3.785156 3.609375 -3.859375 C 3.492188 -3.941406 3.328125 -3.984375 3.109375 -3.984375 Z M 3.109375 -3.984375 "/></g></g><g transform="translate(120.2134, 65.133556)"><g><path d="M 0.1875 0 L 1.203125 -4.828125 L 2.375 -4.828125 L 2.21875 -4.125 L 2.3125 -4.09375 C 2.488281 -4.363281 2.703125 -4.566406 2.953125 -4.703125 C 3.203125 -4.847656 3.503906 -4.921875 3.859375 -4.921875 C 4.304688 -4.921875 4.644531 -4.800781 4.875 -4.5625 C 5.101562 -4.320312 5.21875 -3.988281 5.21875 -3.5625 C 5.21875 -3.375 5.195312 -3.175781 5.15625 -2.96875 L 4.53125 0 L 3.3125 0 L 3.953125 -2.984375 C 3.960938 -3.078125 3.96875 -3.171875 3.96875 -3.265625 C 3.96875 -3.460938 3.910156 -3.613281 3.796875 -3.71875 C 3.679688 -3.832031 3.507812 -3.890625 3.28125 -3.890625 C 2.945312 -3.890625 2.660156 -3.773438 2.421875 -3.546875 C 2.191406 -3.328125 2.023438 -2.976562 1.921875 -2.5 L 1.390625 0 Z M 0.1875 0 "/></g></g><g transform="translate(125.869627, 65.133556)"><g><path d="M 1.75 0.09375 C 1.46875 0.09375 1.195312 0.0507812 0.9375 -0.03125 C 0.6875 -0.113281 0.472656 -0.222656 0.296875 -0.359375 C 0.117188 -0.503906 -0.0078125 -0.664062 -0.09375 -0.84375 L 0.703125 -1.53125 L 0.796875 -1.53125 C 0.910156 -1.320312 1.066406 -1.160156 1.265625 -1.046875 C 1.460938 -0.941406 1.6875 -0.890625 1.9375 -0.890625 C 2.207031 -0.890625 2.414062 -0.941406 2.5625 -1.046875 C 2.707031 -1.148438 2.78125 -1.300781 2.78125 -1.5 C 2.78125 -1.613281 2.738281 -1.707031 2.65625 -1.78125 C 2.570312 -1.863281 2.4375 -1.929688 2.25 -1.984375 L 1.65625 -2.15625 C 1.351562 -2.238281 1.109375 -2.375 0.921875 -2.5625 C 0.734375 -2.757812 0.640625 -3.015625 0.640625 -3.328125 C 0.640625 -3.441406 0.65625 -3.5625 0.6875 -3.6875 C 0.769531 -4.082031 0.984375 -4.382812 1.328125 -4.59375 C 1.679688 -4.8125 2.144531 -4.921875 2.71875 -4.921875 C 3.113281 -4.921875 3.453125 -4.851562 3.734375 -4.71875 C 4.015625 -4.59375 4.226562 -4.421875 4.375 -4.203125 L 3.609375 -3.53125 L 3.515625 -3.53125 C 3.421875 -3.675781 3.296875 -3.785156 3.140625 -3.859375 C 2.984375 -3.929688 2.800781 -3.96875 2.59375 -3.96875 C 2.34375 -3.96875 2.148438 -3.929688 2.015625 -3.859375 C 1.890625 -3.796875 1.8125 -3.691406 1.78125 -3.546875 C 1.78125 -3.515625 1.78125 -3.488281 1.78125 -3.46875 C 1.78125 -3.363281 1.820312 -3.273438 1.90625 -3.203125 C 2 -3.128906 2.128906 -3.066406 2.296875 -3.015625 L 2.84375 -2.875 C 3.59375 -2.6875 3.96875 -2.289062 3.96875 -1.6875 C 3.96875 -1.5625 3.953125 -1.4375 3.921875 -1.3125 C 3.816406 -0.84375 3.59375 -0.488281 3.25 -0.25 C 2.90625 -0.0195312 2.40625 0.09375 1.75 0.09375 Z M 1.75 0.09375 "/></g></g><g transform="translate(130.321936, 65.133556)"><g/></g><g transform="translate(132.436455, 65.133556)"><g><path d="M 2.40625 0.09375 C 2 0.09375 1.640625 0.0195312 1.328125 -0.125 C 1.023438 -0.28125 0.789062 -0.5 0.625 -0.78125 C 0.46875 -1.070312 0.390625 -1.425781 0.390625 -1.84375 C 0.390625 -2.082031 0.414062 -2.332031 0.46875 -2.59375 C 0.570312 -3.070312 0.742188 -3.484375 0.984375 -3.828125 C 1.234375 -4.179688 1.546875 -4.453125 1.921875 -4.640625 C 2.296875 -4.828125 2.722656 -4.921875 3.203125 -4.921875 C 3.617188 -4.921875 3.976562 -4.84375 4.28125 -4.6875 C 4.582031 -4.53125 4.816406 -4.304688 4.984375 -4.015625 C 5.148438 -3.722656 5.234375 -3.375 5.234375 -2.96875 C 5.234375 -2.738281 5.207031 -2.5 5.15625 -2.25 C 5.050781 -1.757812 4.875 -1.335938 4.625 -0.984375 C 4.375 -0.640625 4.0625 -0.375 3.6875 -0.1875 C 3.3125 0 2.882812 0.09375 2.40625 0.09375 Z M 2.515625 -0.9375 C 2.867188 -0.9375 3.164062 -1.054688 3.40625 -1.296875 C 3.65625 -1.546875 3.832031 -1.914062 3.9375 -2.40625 C 3.976562 -2.613281 4 -2.796875 4 -2.953125 C 4 -3.273438 3.921875 -3.507812 3.765625 -3.65625 C 3.609375 -3.8125 3.382812 -3.890625 3.09375 -3.890625 C 2.738281 -3.890625 2.441406 -3.765625 2.203125 -3.515625 C 1.960938 -3.273438 1.789062 -2.90625 1.6875 -2.40625 C 1.632812 -2.207031 1.609375 -2.03125 1.609375 -1.875 C 1.609375 -1.550781 1.6875 -1.3125 1.84375 -1.15625 C 2.007812 -1.007812 2.234375 -0.9375 2.515625 -0.9375 Z M 2.515625 -0.9375 "/></g></g><g transform="translate(138.048903, 65.133556)"><g><path d="M 0.328125 0 L 1.15625 -3.875 L 0.46875 -3.875 L 0.671875 -4.828125 L 1.390625 -4.828125 L 1.390625 -5.03125 C 1.390625 -5.226562 1.40625 -5.394531 1.4375 -5.53125 C 1.5 -5.800781 1.613281 -6.035156 1.78125 -6.234375 C 1.957031 -6.429688 2.1875 -6.582031 2.46875 -6.6875 C 2.75 -6.800781 3.066406 -6.859375 3.421875 -6.859375 C 3.703125 -6.859375 3.941406 -6.828125 4.140625 -6.765625 C 4.335938 -6.703125 4.492188 -6.613281 4.609375 -6.5 L 4.046875 -5.6875 L 3.953125 -5.671875 C 3.816406 -5.804688 3.625 -5.875 3.375 -5.875 C 3.15625 -5.875 2.976562 -5.816406 2.84375 -5.703125 C 2.71875 -5.597656 2.632812 -5.453125 2.59375 -5.265625 C 2.570312 -5.171875 2.5625 -5.078125 2.5625 -4.984375 C 2.5625 -4.953125 2.566406 -4.898438 2.578125 -4.828125 L 3.953125 -4.828125 L 3.75 -3.875 L 2.375 -3.875 L 1.546875 0 Z M 0.328125 0 "/></g></g><g transform="translate(141.5337, 65.133556)"><g/></g><g transform="translate(143.648218, 65.133556)"><g><path d="M 1.921875 0.09375 C 1.640625 0.09375 1.378906 0.03125 1.140625 -0.09375 C 0.898438 -0.226562 0.707031 -0.429688 0.5625 -0.703125 C 0.425781 -0.972656 0.359375 -1.304688 0.359375 -1.703125 C 0.359375 -1.960938 0.390625 -2.242188 0.453125 -2.546875 C 0.617188 -3.328125 0.914062 -3.914062 1.34375 -4.3125 C 1.769531 -4.71875 2.296875 -4.921875 2.921875 -4.921875 C 3.222656 -4.921875 3.484375 -4.867188 3.703125 -4.765625 C 3.921875 -4.660156 4.082031 -4.5 4.1875 -4.28125 L 4.28125 -4.3125 L 4.390625 -4.828125 L 5.609375 -4.828125 L 4.578125 0 L 3.375 0 L 3.5 -0.625 L 3.40625 -0.640625 C 3.21875 -0.410156 3.003906 -0.226562 2.765625 -0.09375 C 2.523438 0.03125 2.242188 0.09375 1.921875 0.09375 Z M 2.46875 -0.9375 C 2.800781 -0.9375 3.09375 -1.050781 3.34375 -1.28125 C 3.601562 -1.519531 3.78125 -1.867188 3.875 -2.328125 C 3.914062 -2.546875 3.9375 -2.734375 3.9375 -2.890625 C 3.9375 -3.222656 3.859375 -3.472656 3.703125 -3.640625 C 3.554688 -3.804688 3.351562 -3.890625 3.09375 -3.890625 C 2.738281 -3.890625 2.441406 -3.773438 2.203125 -3.546875 C 1.960938 -3.316406 1.789062 -2.960938 1.6875 -2.484375 C 1.644531 -2.265625 1.625 -2.070312 1.625 -1.90625 C 1.625 -1.59375 1.695312 -1.351562 1.84375 -1.1875 C 1.988281 -1.019531 2.195312 -0.9375 2.46875 -0.9375 Z M 2.46875 -0.9375 "/></g></g><g transform="translate(149.435782, 65.133556)"><g/></g><g transform="translate(151.5503, 65.133556)"><g><path d="M 1.46875 0.09375 C 1.269531 0.09375 1.085938 0.0507812 0.921875 -0.03125 C 0.765625 -0.125 0.640625 -0.257812 0.546875 -0.4375 C 0.460938 -0.613281 0.421875 -0.820312 0.421875 -1.0625 C 0.421875 -1.21875 0.441406 -1.378906 0.484375 -1.546875 L 1.59375 -6.765625 L 2.796875 -6.765625 L 1.65625 -1.375 C 1.644531 -1.3125 1.640625 -1.269531 1.640625 -1.25 C 1.640625 -1.144531 1.664062 -1.066406 1.71875 -1.015625 C 1.769531 -0.960938 1.835938 -0.9375 1.921875 -0.9375 C 1.984375 -0.9375 2.050781 -0.945312 2.125 -0.96875 L 2.1875 -0.953125 L 2.1875 -0.015625 C 2.007812 0.0546875 1.769531 0.09375 1.46875 0.09375 Z M 1.46875 0.09375 "/></g></g><g transform="translate(154.325879, 65.133556)"><g><path d="M 2.40625 0.09375 C 2 0.09375 1.640625 0.0195312 1.328125 -0.125 C 1.023438 -0.28125 0.789062 -0.5 0.625 -0.78125 C 0.46875 -1.070312 0.390625 -1.425781 0.390625 -1.84375 C 0.390625 -2.082031 0.414062 -2.332031 0.46875 -2.59375 C 0.570312 -3.070312 0.742188 -3.484375 0.984375 -3.828125 C 1.234375 -4.179688 1.546875 -4.453125 1.921875 -4.640625 C 2.296875 -4.828125 2.722656 -4.921875 3.203125 -4.921875 C 3.617188 -4.921875 3.976562 -4.84375 4.28125 -4.6875 C 4.582031 -4.53125 4.816406 -4.304688 4.984375 -4.015625 C 5.148438 -3.722656 5.234375 -3.375 5.234375 -2.96875 C 5.234375 -2.738281 5.207031 -2.5 5.15625 -2.25 C 5.050781 -1.757812 4.875 -1.335938 4.625 -0.984375 C 4.375 -0.640625 4.0625 -0.375 3.6875 -0.1875 C 3.3125 0 2.882812 0.09375 2.40625 0.09375 Z M 2.515625 -0.9375 C 2.867188 -0.9375 3.164062 -1.054688 3.40625 -1.296875 C 3.65625 -1.546875 3.832031 -1.914062 3.9375 -2.40625 C 3.976562 -2.613281 4 -2.796875 4 -2.953125 C 4 -3.273438 3.921875 -3.507812 3.765625 -3.65625 C 3.609375 -3.8125 3.382812 -3.890625 3.09375 -3.890625 C 2.738281 -3.890625 2.441406 -3.765625 2.203125 -3.515625 C 1.960938 -3.273438 1.789062 -2.90625 1.6875 -2.40625 C 1.632812 -2.207031 1.609375 -2.03125 1.609375 -1.875 C 1.609375 -1.550781 1.6875 -1.3125 1.84375 -1.15625 C 2.007812 -1.007812 2.234375 -0.9375 2.515625 -0.9375 Z M 2.515625 -0.9375 "/></g></g><g transform="translate(159.938328, 65.133556)"><g><path d="M 2.375 0.09375 C 1.976562 0.09375 1.628906 0.0195312 1.328125 -0.125 C 1.035156 -0.269531 0.800781 -0.484375 0.625 -0.765625 C 0.457031 -1.054688 0.375 -1.410156 0.375 -1.828125 C 0.375 -2.046875 0.40625 -2.300781 0.46875 -2.59375 C 0.570312 -3.070312 0.75 -3.484375 1 -3.828125 C 1.25 -4.179688 1.566406 -4.453125 1.953125 -4.640625 C 2.347656 -4.828125 2.789062 -4.921875 3.28125 -4.921875 C 3.789062 -4.921875 4.1875 -4.820312 4.46875 -4.625 C 4.75 -4.4375 4.941406 -4.164062 5.046875 -3.8125 L 4.140625 -3.25 L 4.046875 -3.25 C 3.960938 -3.46875 3.847656 -3.628906 3.703125 -3.734375 C 3.566406 -3.835938 3.367188 -3.890625 3.109375 -3.890625 C 2.765625 -3.890625 2.460938 -3.765625 2.203125 -3.515625 C 1.953125 -3.265625 1.773438 -2.878906 1.671875 -2.359375 C 1.628906 -2.203125 1.609375 -2.050781 1.609375 -1.90625 C 1.609375 -1.601562 1.6875 -1.363281 1.84375 -1.1875 C 2 -1.019531 2.21875 -0.9375 2.5 -0.9375 C 2.976562 -0.9375 3.363281 -1.21875 3.65625 -1.78125 L 3.75 -1.78125 L 4.59375 -1.296875 C 4.382812 -0.867188 4.097656 -0.53125 3.734375 -0.28125 C 3.367188 -0.03125 2.914062 0.09375 2.375 0.09375 Z M 2.375 0.09375 "/></g></g><g transform="translate(164.915983, 65.133556)"><g><path d="M 1.921875 0.09375 C 1.640625 0.09375 1.378906 0.03125 1.140625 -0.09375 C 0.898438 -0.226562 0.707031 -0.429688 0.5625 -0.703125 C 0.425781 -0.972656 0.359375 -1.304688 0.359375 -1.703125 C 0.359375 -1.960938 0.390625 -2.242188 0.453125 -2.546875 C 0.617188 -3.328125 0.914062 -3.914062 1.34375 -4.3125 C 1.769531 -4.71875 2.296875 -4.921875 2.921875 -4.921875 C 3.222656 -4.921875 3.484375 -4.867188 3.703125 -4.765625 C 3.921875 -4.660156 4.082031 -4.5 4.1875 -4.28125 L 4.28125 -4.3125 L 4.390625 -4.828125 L 5.609375 -4.828125 L 4.578125 0 L 3.375 0 L 3.5 -0.625 L 3.40625 -0.640625 C 3.21875 -0.410156 3.003906 -0.226562 2.765625 -0.09375 C 2.523438 0.03125 2.242188 0.09375 1.921875 0.09375 Z M 2.46875 -0.9375 C 2.800781 -0.9375 3.09375 -1.050781 3.34375 -1.28125 C 3.601562 -1.519531 3.78125 -1.867188 3.875 -2.328125 C 3.914062 -2.546875 3.9375 -2.734375 3.9375 -2.890625 C 3.9375 -3.222656 3.859375 -3.472656 3.703125 -3.640625 C 3.554688 -3.804688 3.351562 -3.890625 3.09375 -3.890625 C 2.738281 -3.890625 2.441406 -3.773438 2.203125 -3.546875 C 1.960938 -3.316406 1.789062 -2.960938 1.6875 -2.484375 C 1.644531 -2.265625 1.625 -2.070312 1.625 -1.90625 C 1.625 -1.59375 1.695312 -1.351562 1.84375 -1.1875 C 1.988281 -1.019531 2.195312 -0.9375 2.46875 -0.9375 Z M 2.46875 -0.9375 "/></g></g><g transform="translate(170.703547, 65.133556)"><g><path d="M 1.46875 0.09375 C 1.269531 0.09375 1.085938 0.0507812 0.921875 -0.03125 C 0.765625 -0.125 0.640625 -0.257812 0.546875 -0.4375 C 0.460938 -0.613281 0.421875 -0.820312 0.421875 -1.0625 C 0.421875 -1.21875 0.441406 -1.378906 0.484375 -1.546875 L 1.59375 -6.765625 L 2.796875 -6.765625 L 1.65625 -1.375 C 1.644531 -1.3125 1.640625 -1.269531 1.640625 -1.25 C 1.640625 -1.144531 1.664062 -1.066406 1.71875 -1.015625 C 1.769531 -0.960938 1.835938 -0.9375 1.921875 -0.9375 C 1.984375 -0.9375 2.050781 -0.945312 2.125 -0.96875 L 2.1875 -0.953125 L 2.1875 -0.015625 C 2.007812 0.0546875 1.769531 0.09375 1.46875 0.09375 Z M 1.46875 0.09375 "/></g></g><g transform="translate(173.479126, 65.133556)"><g><path d="M 1.890625 -2.125 L 0.796875 -2.125 L 1.609375 -6.40625 L 2.890625 -6.40625 Z M 1.03125 0.046875 C 0.882812 0.046875 0.75 0.015625 0.625 -0.046875 C 0.507812 -0.109375 0.421875 -0.191406 0.359375 -0.296875 C 0.296875 -0.410156 0.265625 -0.535156 0.265625 -0.671875 C 0.265625 -0.804688 0.296875 -0.925781 0.359375 -1.03125 C 0.421875 -1.144531 0.507812 -1.234375 0.625 -1.296875 C 0.75 -1.359375 0.882812 -1.390625 1.03125 -1.390625 C 1.257812 -1.390625 1.441406 -1.320312 1.578125 -1.1875 C 1.722656 -1.050781 1.796875 -0.878906 1.796875 -0.671875 C 1.796875 -0.460938 1.722656 -0.289062 1.578125 -0.15625 C 1.441406 -0.0195312 1.257812 0.046875 1.03125 0.046875 Z M 1.03125 0.046875 "/></g></g></g></svg>